<?xml version="1.0" encoding="UTF-8"?>
<svg id="Layer_1" data-name="Layer 1" xmlns="http://www.w3.org/2000/svg" viewBox="0 0 397.39 312.97">
  <defs>
    <style>
      .cls-1 {
        fill: #b5dedb;
      }

      .cls-1, .cls-2, .cls-3, .cls-4, .cls-5, .cls-6, .cls-7, .cls-8, .cls-9, .cls-10, .cls-11, .cls-12, .cls-13, .cls-14, .cls-15, .cls-16, .cls-17, .cls-18, .cls-19, .cls-20, .cls-21, .cls-22, .cls-23, .cls-24, .cls-25, .cls-26, .cls-27, .cls-28, .cls-29, .cls-30, .cls-31, .cls-32, .cls-33, .cls-34, .cls-35, .cls-36, .cls-37, .cls-38 {
        stroke-width: 0px;
      }

      .cls-2 {
        fill: #85b4e1;
      }

      .cls-3 {
        fill: #020202;
      }

      .cls-4 {
        fill: #fdc40f;
      }

      .cls-5 {
        fill: #d02127;
      }

      .cls-6 {
        fill: #dfcfc8;
      }

      .cls-7 {
        fill: #d4d4ea;
      }

      .cls-8 {
        fill: #040404;
      }

      .cls-9 {
        fill: #deab58;
      }

      .cls-10 {
        fill: #fcdfb3;
      }

      .cls-11 {
        fill: #f47c21;
      }

      .cls-12 {
        fill: #030303;
      }

      .cls-13 {
        fill: #040302;
      }

      .cls-14 {
        fill: #d6d7ec;
      }

      .cls-15 {
        fill: #060505;
      }

      .cls-39 {
        stroke: #58595b;
        stroke-width: .5px;
      }

      .cls-39, .cls-40, .cls-41, .cls-42 {
        stroke-miterlimit: 10;
      }

      .cls-39, .cls-42 {
        fill: none;
      }

      .cls-40, .cls-41, .cls-24 {
        fill: #231f20;
      }

      .cls-40, .cls-41, .cls-42 {
        stroke: #231f20;
      }

      .cls-40, .cls-42 {
        stroke-width: 4px;
      }

      .cls-16 {
        fill: #d5d7ec;
      }

      .cls-17 {
        fill: #fce0b4;
      }

      .cls-18 {
        fill: #fde0b0;
      }

      .cls-19 {
        fill: #fff;
      }

      .cls-20 {
        fill: #d4d5eb;
      }

      .cls-21 {
        fill: #d6d7ed;
      }

      .cls-41 {
        stroke-width: 2px;
      }

      .cls-22 {
        fill: #ce2126;
      }

      .cls-23 {
        fill: #74c592;
      }

      .cls-25 {
        fill: #030202;
      }

      .cls-26 {
        fill: #040303;
      }

      .cls-27 {
        fill: #fee0b2;
      }

      .cls-28 {
        fill: #050303;
      }

      .cls-29 {
        fill: #76c692;
      }

      .cls-30 {
        fill: #0c0606;
      }

      .cls-31 {
        fill: #77c692;
      }

      .cls-32 {
        fill: #fce0b0;
      }

      .cls-33 {
        fill: #d12127;
      }

      .cls-34 {
        fill: #7a70b3;
      }

      .cls-35 {
        fill: #fce7a5;
      }

      .cls-36 {
        fill: #c4dcf3;
      }

      .cls-37 {
        fill: #060506;
      }

      .cls-38 {
        fill: #040202;
      }
    </style>
  </defs>
  <g>
    <path class="cls-15" d="M36.81,203.33c0,.54.06,1.09.01,1.63-.05.53.15.64.63.61.53-.04,1.06,0,1.59,0,.05.6.2,1.2.17,1.81-.02.37-.19.58-.57.57-.54-.02-1.1.12-1.62-.13-.34-.01-.18.25-.18.38-.02,1.35-.01,2.7-.02,4.06-.34.28-.75.14-1.12.15-.97.02-.97,0-.97.95,0,.15,0,.29,0,.44-.02.68.12.8-.83.83-1.32.05-2.65.07-3.98.02-.46-.02-.92,0-1.38-.02-1.24-.02-2.48.03-3.71.04-.46,0-.91-.24-1.38-.06,0,.68,0,1.36,0,2.04.01.07-.01.12-.07.16-.2.1-.41.07-.62.07-3.21,0-6.41.02-9.62.02-.79,0-.96.18-1.01-1.02-.01-.23,0-.45,0-.68-.01-.48-.08-.56-.58-.55-.69.01-1.39.03-2.08.01-.56-.02-1.11-.1-1.67-.17h0c-.15-.73-.31-1.48-.03-2.23.16-.14.36-.14.55-.14,1.12,0,2.23-.01,3.35,0,.62,0,.72.13.74.75,0,.32,0,.65,0,.97,0,.34.14.52.49.51.1,0,.19,0,.29,0,3.09,0,6.17,0,9.26,0,.79,0,.82-.03.82-.81,0-1.23.12-1.11-1.13-1.11-1.08,0-1.11-.03-1.1-1.12,0-.41-.08-.84.1-1.24.33-.29.74-.16,1.11-.17,1.12-.01,1.02.01,1.02-1.03,0-.91,0-.9-.94-.92-.39,0-.81.11-1.17-.15-.23-.66-.12-1.34-.08-2.01.01-.26.23-.33.45-.35.32-.03.65-.01.97-.02.76,0,.75-.01.77-.75.01-.45-.11-.91.12-1.33.28-.22.61-.15.92-.15.43,0,.86-.05,1.29.04.06.02.11.05.15.09-.11.41-.47.32-.75.35-.47.05-.59.18-.56.65.03.42.14.51.7.51,2.29,0,4.59,0,6.88,0,1.26,0,2.52,0,3.78,0,.69,0,.75-.07.74-.74,0-.24-.03-.48-.04-.72.09-.13.19-.11.3-.03Z"/>
    <path class="cls-4" d="M23.4,203.33c0,.63-.01,1.26.01,1.88,0,.28-.09.36-.36.35-.48-.02-.97.02-1.45-.01-.38-.03-.46.12-.44.46.03.59,0,1.19,0,1.79-.02.02-.05.04-.07.06-.72.18-1.45.05-2.18.08-.54.02-1.08.01-1.62,0-.24,0-.48,0-.65-.23-.12-.22-.1-.47-.1-.71,0-.98,0-1.97,0-2.95,0-.53-.05-.55-.59-.58-.51-.03-1.03.13-1.52-.14-.24-.42-.12-.89-.13-1.33-.02-.73-.02-.75-.77-.75-2.37,0-4.75,0-7.12,0-.21,0-.42,0-.63-.03-.17-.03-.34-.1-.36-.28-.07-.7-.19-1.41.09-2.09h0c.21-.16.45-.13.69-.14.5,0,1,.02,1.5-.03.06,0,.12,0,.18,0,.5.06,1,.02,1.5.03.32,0,.48-.15.47-.47,0-.34,0-.68-.01-1.02-.03-.51.13-.71.66-.73.73-.03,1.45-.01,2.18,0,.39,0,.77-.05,1.16-.07.33-.02.44-.17.45-.49.01-.37.02-.74.05-1.11.04-.43.21-.59.62-.57,1.16.03,2.32,0,3.49.02.19,0,.39-.01.54.14.14.24.1.5.1.76,0,1.66,0,3.33,0,4.99,0,.79,0,.78.82.8.41,0,.84-.09,1.24.11.28.34.16.74.17,1.11.02,1.11-.07,1.01,1.02,1.02.33,0,.68-.06,1,.09.02.02.04.04.06.06Z"/>
    <path class="cls-19" d="M25.74,203.34l-.1-.03c-.2-.23-.13-.52-.14-.79-.01-.24,0-.48,0-.72-.01-.51-.05-.54-.55-.56-.5-.02-1,.07-1.49-.07-.05-.03-.1-.07-.12-.12-.12-.34-.07-.7-.07-1.05,0-.89,0-1.77,0-2.66,0-.5-.05-.52-.56-.55-.51-.03-1.03.11-1.53-.11-.25-.73-.15-1.46-.07-2.2.03-.06.07-.1.12-.14.28-.12.57-.08.86-.08,1.29-.02,1.17.15,1.18-1.16,0-.19,0-.39.02-.58.02-.28.16-.47.45-.47,1.35-.02,2.71-.08,4.06.04.06.02.1.06.14.11.19.5.07,1.02.09,1.52.03.51.05.53.56.55.49.02.99-.07,1.48.07.06.03.1.07.13.13.08.73.2,1.46-.07,2.18-.16.14-.35.15-.55.15-.34,0-.68.01-1.02,0-.36-.01-.53.12-.52.51.01,1.07,0,2.14,0,3.2,0,.33.14.46.46.46,1.73-.02,1.44.2,1.47-1.36.01-.78,0-1.55,0-2.33,0-.23-.01-.46.16-.64.74-.22,1.49-.25,2.23.02h-.01c.16.16.16.37.16.58,0,1.84,0,3.68,0,5.52,0,.63-.12.74-.74.75-1.82.01-3.65,0-5.47,0-.19,0-.39,0-.55-.14Z"/>
    <path class="cls-11" d="M16.72,207.71c.56.19,1.13.04,1.7.09.17.01.35.01.52.02.2.23.13.52.15.78,0,.24,0,.48,0,.72.01.52.05.55.59.57.48.02.96-.08,1.43.08.02.02.04.04.06.06,0,.63,0,1.26,0,1.89,0,.28.09.37.37.36.47-.02.94.03,1.41-.01.41-.04.5.13.47.49-.03.37-.04.75,0,1.11.05.48-.1.64-.61.63-2.07-.03-4.14-.01-6.21-.01-1.28,0-2.56-.01-3.83,0-.4,0-.54-.12-.52-.53.03-.45,0-.91.01-1.36,0-.28-.1-.37-.37-.36-1.37.01-2.75.01-4.12.02,0,0,0,0,0,0-.28-.67-.18-1.36-.08-2.04.05-.33.39-.35.67-.35.81-.02,1.61,0,2.42,0,.98,0,1.97,0,2.95,0,.53,0,.56-.06.59-.59.03-.49-.1-1,.12-1.48.14-.14.32-.16.49-.16.6.01,1.2-.07,1.79.05Z"/>
    <path class="cls-38" d="M25.74,203.34c2.06,0,4.11-.02,6.17,0,.37,0,.45-.09.45-.45-.02-2.09-.01-4.18-.02-6.27h2.23c0,2.08,0,4.15.02,6.22,0,.15-.11.35.09.47.62.01,1.23.02,1.85.03.17.21.26,1.24.12,1.44-.11.17-.28.19-.47.19-3.78,0-7.57,0-11.35,0-.49,0-.54-.11-.56-.79,0-.42.09-.69.59-.67.3.01.62.08.87-.17Z"/>
    <path class="cls-33" d="M30.06,207.77c-2.05,0-4.11,0-6.16,0-.36,0-.49-.1-.47-.46.02-.37,0-.74,0-1.12,0-.62,0-.63.62-.63,2.83,0,5.66,0,8.49,0,1.24,0,2.49.02,3.73,0,.39,0,.49.15.53.49.15,1.72.16,1.71-1.54,1.71-1.73,0-3.46,0-5.19,0,0,0,0,0,0,0Z"/>
    <path class="cls-5" d="M29.01,210.05c1.67,0,3.33.02,5-.01.47,0,.6.16.56.59-.03.35-.02.71,0,1.07.02.42-.13.56-.56.56-3.01-.02-6.02,0-9.02,0-.4,0-.81,0-1.21,0-.25,0-.35-.1-.35-.35,0-.44.02-.87,0-1.31-.03-.42.11-.56.55-.56,1.68.02,3.36,0,5.05,0,0,0,0,0,0,.01Z"/>
    <path class="cls-38" d="M29.74,208.18c.89,0,1.78-.01,2.67,0,.47,0,.91,0,1.4.22.39.18.97.23,1.42-.13.23-.18,1.13-.12,1.36.05.14.1.13.25.13.39,0,.95,0,1.91,0,2.86,0,.3-.1.42-.39.39-.03,0-.06,0-.1,0-1,.01-.94.01-.92-.99,0-.47,0-1-.32-1.45-.44-.59-.67-.64-1.41-.24-.2.11-.42.15-.65.15-2.14,0-4.27,0-6.41,0-.38,0-.76-.03-.78-.57-.02-.56.09-.69.65-.69,1.12,0,2.23,0,3.35,0Z"/>
    <path class="cls-38" d="M28.94,212.75c1.21,0,2.43.01,3.64,0,.45,0,.9.07,1.35.1.47.03.58.29.56.72-.02.41-.2.62-.61.65-1.24.08-2.48-.06-3.71.01-.99.06-1.98-.02-2.98.02-.84.03-1.71,0-2.56-.04-.3-.01-.44-.18-.44-.47,0-.15,0-.29,0-.44-.02-.41.15-.56.58-.56,1.39.02,2.78,0,4.18,0Z"/>
    <path class="cls-1" d="M23.41,201.09c.58,0,1.16.02,1.74,0,.37-.02.52.08.5.48-.03.58,0,1.16,0,1.74-.75,0-1.5.01-2.24.02,0,0,.01,0,.01,0-.25-.75-.25-1.49,0-2.24Z"/>
    <path class="cls-22" d="M21.17,207.8c.6,0,1.19.02,1.79,0,.33,0,.46.12.44.46-.02.42-.03.84,0,1.26.02.38-.09.52-.49.5-.58-.03-1.16,0-1.74,0,0,0,0,0,0,0-.25-.75-.24-1.5,0-2.25h0Z"/>
    <path class="cls-38" d="M38.87,206.81c.16.32,0,.49-.26.62-.17.09-.32.07-.44-.05-.15-.14.03-.22.1-.31.15-.21.15-.39-.08-.53-.16-.1-.24-.2-.16-.39.07-.16.19-.26.36-.28.18-.02.25.12.3.26.09.22.38.4.17.69Z"/>
    <path class="cls-28" d="M5.54,198.85c0,.6.03,1.2,0,1.79-.02.36.09.46.46.46,2.65-.02,5.3,0,7.94-.02.44,0,.58.11.55.55-.04.56-.01,1.13-.02,1.69-.02.02-.05.04-.07.06-.23.12-.47.09-.71.09-3.2,0-6.4,0-9.59,0-.24,0-.49.03-.71-.08-.02-.02-.05-.04-.07-.06,0-1.49,0-2.98,0-4.47.74,0,1.48-.01,2.22-.02Z"/>
    <path class="cls-26" d="M7.79,198.79c-.75.16-1.51.04-2.26.07,0-.74.01-1.48.02-2.21.74-.13,1.49-.34,2.24-.03.21.72.2,1.45,0,2.18Z"/>
    <path class="cls-12" d="M27.89,192.16c-1.36,0-2.72.01-4.08,0-.31,0-.42.08-.41.4.03.5,0,1,.02,1.5.01.28-.09.35-.36.34-.63-.02-1.26,0-1.89,0-.05-.04-.08-.09-.1-.15-.09-.43-.03-.87-.05-1.31-.02-.58-.05-.62-.65-.63-1.68,0-3.36,0-5.05,0-.24,0-.49.02-.72-.04-.06-.02-.11-.05-.16-.09-.11-.17-.12-.34,0-.51,0-.45.04-.91,0-1.36-.03-.37.14-.41.45-.4,1.75.01,3.5,0,5.24,0,2.57,0,5.15,0,7.72.01h0c.06.59.16,1.18.16,1.78,0,.16-.01.32-.14.44Z"/>
    <path class="cls-3" d="M3.31,207.79c-.74,0-1.49,0-2.23,0,0-1.38,0-2.77-.02-4.15,0-.26.07-.33.32-.32.64.02,1.29,0,1.93.01,0,0-.01-.01-.01-.01.24.31.14.68.15,1.02.01.27.01.54,0,.81-.02.65.01,1.3,0,1.96,0,.21.02.42-.08.61-.02.02-.04.05-.06.07Z"/>
    <path class="cls-28" d="M5.55,212.25c0-.61-.03-1.22-.02-1.83,0-.27-.03-.41-.36-.39-.59.03-1.19.01-1.78.02-.02-.02-.05-.03-.08-.02,0-.74,0-1.49-.01-2.23,0,0-.01,0-.01,0,.2-.17.44-.16.68-.16.49,0,.98-.02,1.47,0,2.25-.02,4.5-.02,6.75,0,.74.03,1.48-.1,2.21.08.02.02.05.04.07.06,0,.6-.01,1.19.02,1.79.02.37-.1.47-.46.47-1.9-.01-3.81,0-5.71-.01-.43,0-.57.11-.54.54.04.56,0,1.13,0,1.69-.74,0-1.48-.02-2.22-.02Z"/>
    <path class="cls-8" d="M30.11,194.38c.74,0,1.49.01,2.23.02,0,.74.01,1.49.02,2.23-.75,0-1.5-.01-2.25-.02h.01c0-.74,0-1.48-.01-2.23Z"/>
    <path class="cls-18" d="M21.16,194.29s0,.07.01.1c0,0,.01,0,.01,0-.75.27-1.5.22-2.25.03-1.2-.09-2.39-.02-3.59-.04-.88-.01-.88,0-.89.87,0,.32,0,.64,0,.96,0,.28-.14.36-.4.36-1.18,0-2.36.04-3.54.04-.46,0-.6.18-.54.62.05.38,0,.78.02,1.16,0,.26-.13.42-.36.43-.59.02-1.19.09-1.78-.05.1-.31.07-.64.07-.96,0-.19,0-.39.06-.57.07-.18.18-.32.39-.3.23.02.28.2.28.39,0,.29-.02.58.08.87.09-.26.04-.54.08-.81.02-.16.06-.34.27-.33.23.02.22.2.21.37-.02.27-.08.55.05.81.03.07.09.15.18.14.1,0,.12-.1.13-.18.03-.24.04-.49,0-.72-.05-.33,0-.64.14-.94.09-.5.03-1,.05-1.5,0-.22-.02-.46.15-.64h-.01c.2-.17.45-.14.69-.14,1,0,1.99,0,2.99,0,.24,0,.49,0,.7-.14.18-.07.28-.17.21-.4-.08-.26-.05-.55-.02-.82.02-.21.11-.39.35-.39.24,0,.32.18.36.38.01.06,0-.02,0,.05q.11.76.89.76c.4,0,.81,0,1.21,0,.23,0,.46.02.65.14.19.12.37.2.59.08.22-.12.34.12.52.2.16-.36.16-.74.25-1.09.05-.17.09-.38.31-.38.25,0,.23.23.26.4.08.41.18.83-.04,1.2.38-.05.82-.16,1.24.08Z"/>
    <path class="cls-13" d="M18.94,194.41c.75,0,1.5-.02,2.25-.03,0,.75,0,1.49,0,2.24.11.13.13.29.13.45,0,1.19.01,2.38,0,3.58,0,.13-.02.26-.08.37-.02.02-.04.05-.07.07-.6,0-1.19-.02-1.79,0-.36.02-.46-.09-.46-.45.02-2.08,0-4.16,0-6.24Z"/>
    <path class="cls-26" d="M16.72,207.71c-.37.21-.77.07-1.16.09-.36.02-.73,0-1.09,0,0,0,0,0,0,0-.17-.19-.15-.42-.15-.64,0-.53-.01-1.06,0-1.59-.03-.56,0-1.13,0-1.69,0-.2.01-.39.15-.55,0,0,0,0,0,0,.62,0,1.23.02,1.84,0,.33-.01.4.1.4.41-.01,1.33,0,2.65,0,3.98Z"/>
    <path class="cls-15" d="M23.41,201.09c0,.75,0,1.49,0,2.24-.63,0-1.26-.01-1.89,0-.27,0-.36-.07-.36-.35.02-.63,0-1.26,0-1.89,0,0,0,0,0,0,.75-.25,1.49-.25,2.24,0h0Z"/>
    <path class="cls-30" d="M21.18,207.79c0,.75,0,1.5,0,2.25-.61,0-1.22,0-1.84.01-.31.01-.43-.08-.42-.4.03-.61.01-1.22.02-1.84.74,0,1.49-.01,2.23-.02Z"/>
    <path class="cls-32" d="M9.91,196.64c-.26.47-.03.97-.1,1.45-.03.2.08.48-.22.51-.29.02-.42-.23-.45-.48-.02-.22,0-.45.02-.67.01-.12.12-.28-.08-.3-.19-.01-.14.18-.15.3,0,.27,0,.55,0,.83,0,.14-.05.27-.21.27-.2,0-.17-.16-.17-.28.01-.3-.1-.6-.01-.91.04-.13.04-.31-.18-.33-.19-.01-.26.14-.28.28-.03.32-.02.65-.02.97,0,.2.02.4-.21.5-.02,0-.04,0-.07.02,0-.72,0-1.44-.01-2.16,0,0-.01,0-.01,0,.72-.25,1.43-.27,2.14.01Z"/>
    <path class="cls-3" d="M30.11,196.62c0,1.38,0,2.75.02,4.13,0,.27-.07.37-.35.35-.53-.02-1.07-.02-1.6,0-.23,0-.3-.06-.3-.3.01-1.3.01-2.59,0-3.89,0-.23.07-.31.3-.3.65.02,1.29.01,1.94.01,0,0-.01-.01-.01-.01Z"/>
    <path class="cls-1" d="M23.41,201.09c-.75,0-1.49,0-2.24,0,0-1.49.01-2.98.02-4.47.58,0,1.17.03,1.75,0,.4-.02.49.14.48.5-.02,1.33,0,2.65,0,3.98Z"/>
    <path class="cls-12" d="M30.1,192.17c0,.74.01,1.49.02,2.23-.63,0-1.26-.02-1.89,0-.28,0-.36-.08-.35-.35.02-.63,0-1.26,0-1.89.74,0,1.49.01,2.23.02Z"/>
    <path class="cls-25" d="M14.5,194.1c.03.31-.18.3-.4.3-1.37,0-2.73,0-4.1,0,0-.74.01-1.48.02-2.22,1.39-.01,2.78-.02,4.16-.03.1,0,.2.01.29.02,0,0-.01-.01-.01-.01.1.11.16.25.13.4-.1.51.08,1.05-.1,1.55Z"/>
    <path class="cls-37" d="M9.91,196.64c-.71,0-1.43,0-2.14-.01,0-.74.01-1.48.02-2.23l2.23-.02c0,.61,0,1.21,0,1.82,0,.15.08.32-.1.44Z"/>
    <path class="cls-19" d="M14.48,203.32l-.02,2.25c-.1.18-.28.14-.43.14-.34,0-.68,0-1.02,0-.56,0-.61.06-.62.61,0,.31,0,.61,0,.92,0,.19.01.39-.14.55h-6.8c-.14-.49-.01-.99-.04-1.48-.03-.53-.07-.58-.59-.59-.31,0-.61-.01-.92,0-.36.01-.59-.11-.57-.51,0-.62-.02-1.25-.02-1.87,3.73,0,7.45,0,11.18,0Z"/>
    <path class="cls-27" d="M14.5,194.1c0-.65-.02-1.3-.02-1.95,2.09,0,4.17.01,6.26,0,.35,0,.48.07.46.45-.04.56-.02,1.13-.03,1.7-.47,0-.94,0-1.42,0,.2-.27.23-1.3.05-1.54-.02-.03-.08-.06-.11-.05-.09.02-.12.1-.14.18-.07.39-.1.8-.24,1.17-.03.08.2.21-.05.24-.14.01-.31.04-.35-.16-.03-.16-.11-.28-.23-.12-.23.29-.41.17-.6-.02-.17-.16-.36-.19-.58-.19-.63,0-1.26-.01-1.89,0-.34.01-.48-.1-.44-.44.02-.18,0-.36,0-.53,0-.14-.06-.26-.22-.27-.19-.01-.26.12-.26.28.02.42-.13.88.25,1.21-.16.16-.3,0-.43.04Z"/>
    <path class="cls-10" d="M3.32,205.19c.07.29.22.41.54.38.4-.04.81,0,1.21-.01.32-.01.49.1.47.44-.04.59.1,1.19-.1,1.78-.71,0-1.43.02-2.14.02,0-.87.02-1.74.02-2.61Z"/>
    <path class="cls-17" d="M12.24,207.78c0-.58.01-1.16,0-1.74-.01-.36.13-.49.49-.48.58.02,1.16.01,1.73.02,0,.74.01,1.48.02,2.22-.74,0-1.49-.01-2.23-.02Z"/>
  </g>
  <g>
    <path class="cls-15" d="M35.75,123.09c0,.54.06,1.09.01,1.63-.05.53.15.64.63.61.53-.04,1.06,0,1.59,0,.05.6.2,1.2.17,1.81-.02.37-.19.58-.57.57-.54-.02-1.1.12-1.62-.13-.34-.01-.18.25-.18.38-.02,1.35-.01,2.7-.02,4.06-.34.28-.75.14-1.12.15-.97.02-.97,0-.97.95,0,.15,0,.29,0,.44-.02.68.12.8-.83.83-1.32.05-2.65.07-3.98.02-.46-.02-.92,0-1.38-.02-1.24-.02-2.48.03-3.71.04-.46,0-.91-.24-1.38-.06,0,.68,0,1.36,0,2.04.01.07-.01.12-.07.16-.2.1-.41.07-.62.07-3.21,0-6.41.02-9.62.02-.79,0-.96.18-1.01-1.02-.01-.23,0-.45,0-.68-.01-.48-.08-.56-.58-.55-.69.01-1.39.03-2.08.01-.56-.02-1.11-.1-1.67-.17h0c-.15-.73-.31-1.48-.03-2.23.16-.14.36-.14.55-.14,1.12,0,2.23-.01,3.35,0,.62,0,.72.13.74.75,0,.32,0,.65,0,.97,0,.34.14.52.49.51.1,0,.19,0,.29,0,3.09,0,6.17,0,9.26,0,.79,0,.82-.03.82-.81,0-1.23.12-1.11-1.13-1.11-1.08,0-1.11-.03-1.1-1.12,0-.41-.08-.84.1-1.24.33-.29.74-.16,1.11-.17,1.12-.01,1.02.01,1.02-1.03,0-.91,0-.9-.94-.92-.39,0-.81.11-1.17-.15-.23-.66-.12-1.34-.08-2.01.01-.26.23-.33.45-.35.32-.03.65-.01.97-.02.76,0,.75-.01.77-.75.01-.45-.11-.91.12-1.33.28-.22.61-.15.92-.15.43,0,.86-.05,1.29.04.06.02.11.05.15.09-.11.41-.47.32-.75.35-.47.05-.59.18-.56.65.03.42.14.51.7.51,2.29,0,4.59,0,6.88,0,1.26,0,2.52,0,3.78,0,.69,0,.75-.07.74-.74,0-.24-.03-.48-.04-.72.09-.13.19-.11.3-.03Z"/>
    <path class="cls-34" d="M22.35,123.09c0,.63-.01,1.26.01,1.88,0,.28-.09.36-.36.35-.48-.02-.97.02-1.45-.01-.38-.03-.46.12-.44.46.03.59,0,1.19,0,1.79-.02.02-.05.04-.07.06-.72.18-1.45.05-2.18.08-.54.02-1.08.01-1.62,0-.24,0-.48,0-.65-.23-.12-.22-.1-.47-.1-.71,0-.98,0-1.97,0-2.95,0-.53-.05-.55-.59-.58-.51-.03-1.03.13-1.52-.14-.24-.42-.12-.89-.13-1.33-.02-.73-.02-.75-.77-.75-2.37,0-4.75,0-7.12,0-.21,0-.42,0-.63-.03-.17-.03-.34-.1-.36-.28-.07-.7-.19-1.41.09-2.09h0c.21-.16.45-.13.69-.14.5,0,1,.02,1.5-.03.06,0,.12,0,.18,0,.5.06,1,.02,1.5.03.32,0,.48-.15.47-.47,0-.34,0-.68-.01-1.02-.03-.51.13-.71.66-.73.73-.03,1.45-.01,2.18,0,.39,0,.77-.05,1.16-.07.33-.02.44-.17.45-.49.01-.37.02-.74.05-1.11.04-.43.21-.59.62-.57,1.16.03,2.32,0,3.49.02.19,0,.39-.01.54.14.14.24.1.5.1.76,0,1.66,0,3.33,0,4.99,0,.79,0,.78.82.8.41,0,.84-.09,1.24.11.28.34.16.74.17,1.11.02,1.11-.07,1.01,1.02,1.02.33,0,.68-.06,1,.09.02.02.04.04.06.06Z"/>
    <path class="cls-19" d="M24.69,123.1l-.1-.03c-.2-.23-.13-.52-.14-.79-.01-.24,0-.48,0-.72-.01-.51-.05-.54-.55-.56-.5-.02-1,.07-1.49-.07-.05-.03-.1-.07-.12-.12-.12-.34-.07-.7-.07-1.05,0-.89,0-1.77,0-2.66,0-.5-.05-.52-.56-.55-.51-.03-1.03.11-1.53-.11-.25-.73-.15-1.46-.07-2.2.03-.06.07-.1.12-.14.28-.12.57-.08.86-.08,1.29-.02,1.17.15,1.18-1.16,0-.19,0-.39.02-.58.02-.28.16-.47.45-.47,1.35-.02,2.71-.08,4.06.04.06.02.1.06.14.11.19.5.07,1.02.09,1.52.03.51.05.53.56.55.49.02.99-.07,1.48.07.06.03.1.07.13.13.08.73.2,1.46-.07,2.18-.16.14-.35.15-.55.15-.34,0-.68.01-1.02,0-.36-.01-.53.12-.52.51.01,1.07,0,2.14,0,3.2,0,.33.14.46.46.46,1.73-.02,1.44.2,1.47-1.36.01-.78,0-1.55,0-2.33,0-.23-.01-.46.16-.64.74-.22,1.49-.25,2.23.02h-.01c.16.16.16.37.16.58,0,1.84,0,3.68,0,5.52,0,.63-.12.74-.74.75-1.82.01-3.65,0-5.47,0-.19,0-.39,0-.55-.14Z"/>
    <path class="cls-2" d="M15.67,127.47c.56.19,1.13.04,1.7.09.17.01.35.01.52.02.2.23.13.52.15.78,0,.24,0,.48,0,.72.01.52.05.55.59.57.48.02.96-.08,1.43.08.02.02.04.04.06.06,0,.63,0,1.26,0,1.89,0,.28.09.37.37.36.47-.02.94.03,1.41-.01.41-.04.5.13.47.49-.03.37-.04.75,0,1.11.05.48-.1.64-.61.63-2.07-.03-4.14-.01-6.21-.01-1.28,0-2.56-.01-3.83,0-.4,0-.54-.12-.52-.53.03-.45,0-.91.01-1.36,0-.28-.1-.37-.37-.36-1.37.01-2.75.01-4.12.02,0,0,0,0,0,0-.28-.67-.18-1.36-.08-2.04.05-.33.39-.35.67-.35.81-.02,1.61,0,2.42,0,.98,0,1.97,0,2.95,0,.53,0,.56-.06.59-.59.03-.49-.1-1,.12-1.48.14-.14.32-.16.49-.16.6.01,1.2-.07,1.79.05Z"/>
    <path class="cls-38" d="M24.69,123.1c2.06,0,4.11-.02,6.17,0,.37,0,.45-.09.45-.45-.02-2.09-.01-4.18-.02-6.27h2.23c0,2.08,0,4.15.02,6.22,0,.15-.11.35.09.47.62.01,1.23.02,1.85.03.17.21.26,1.24.12,1.44-.11.17-.28.19-.47.19-3.78,0-7.57,0-11.35,0-.49,0-.54-.11-.56-.79,0-.42.09-.69.59-.67.3.01.62.08.87-.17Z"/>
    <path class="cls-31" d="M29,127.53c-2.05,0-4.11,0-6.16,0-.36,0-.49-.1-.47-.46.02-.37,0-.74,0-1.12,0-.62,0-.63.62-.63,2.83,0,5.66,0,8.49,0,1.24,0,2.49.02,3.73,0,.39,0,.49.15.53.49.15,1.72.16,1.71-1.54,1.71-1.73,0-3.46,0-5.19,0,0,0,0,0,0,0Z"/>
    <path class="cls-29" d="M27.96,129.81c1.67,0,3.33.02,5-.01.47,0,.6.16.56.59-.03.35-.02.71,0,1.07.02.42-.13.56-.56.56-3.01-.02-6.02,0-9.02,0-.4,0-.81,0-1.21,0-.25,0-.35-.1-.35-.35,0-.44.02-.87,0-1.31-.03-.42.11-.56.55-.56,1.68.02,3.36,0,5.05,0,0,0,0,0,0,.01Z"/>
    <path class="cls-38" d="M28.69,127.95c.89,0,1.78-.01,2.67,0,.47,0,.91,0,1.4.22.39.18.97.23,1.42-.13.23-.18,1.13-.12,1.36.05.14.1.13.25.13.39,0,.95,0,1.91,0,2.86,0,.3-.1.42-.39.39-.03,0-.06,0-.1,0-1,.01-.94.01-.92-.99,0-.47,0-1-.32-1.45-.44-.59-.67-.64-1.41-.24-.2.11-.42.15-.65.15-2.14,0-4.27,0-6.41,0-.38,0-.76-.03-.78-.57-.02-.56.09-.69.65-.69,1.12,0,2.23,0,3.35,0Z"/>
    <path class="cls-38" d="M27.88,132.51c1.21,0,2.43.01,3.64,0,.45,0,.9.07,1.35.1.47.03.58.29.56.72-.02.41-.2.62-.61.65-1.24.08-2.48-.06-3.71.01-.99.06-1.98-.02-2.98.02-.84.03-1.71,0-2.56-.04-.3-.01-.44-.18-.44-.47,0-.15,0-.29,0-.44-.02-.41.15-.56.58-.56,1.39.02,2.78,0,4.18,0Z"/>
    <path class="cls-6" d="M22.35,120.85c.58,0,1.16.02,1.74,0,.37-.02.52.08.5.48-.03.58,0,1.16,0,1.74-.75,0-1.5.01-2.24.02,0,0,.01,0,.01,0-.25-.75-.25-1.49,0-2.24Z"/>
    <path class="cls-23" d="M20.11,127.56c.6,0,1.19.02,1.79,0,.33,0,.46.12.44.46-.02.42-.03.84,0,1.26.02.38-.09.52-.49.5-.58-.03-1.16,0-1.74,0,0,0,0,0,0,0-.25-.75-.24-1.5,0-2.25h0Z"/>
    <path class="cls-38" d="M37.82,126.57c.16.32,0,.49-.26.62-.17.09-.32.07-.44-.05-.15-.14.03-.22.1-.31.15-.21.15-.39-.08-.53-.16-.1-.24-.2-.16-.39.07-.16.19-.26.36-.28.18-.02.25.12.3.26.09.22.38.4.17.69Z"/>
    <path class="cls-28" d="M4.48,118.61c0,.6.03,1.2,0,1.79-.02.36.09.46.46.46,2.65-.02,5.3,0,7.94-.02.44,0,.58.11.55.55-.04.56-.01,1.13-.02,1.69-.02.02-.05.04-.07.06-.23.12-.47.09-.71.09-3.2,0-6.4,0-9.59,0-.24,0-.49.03-.71-.08-.02-.02-.05-.04-.07-.06,0-1.49,0-2.98,0-4.47.74,0,1.48-.01,2.22-.02Z"/>
    <path class="cls-26" d="M6.73,118.55c-.75.16-1.51.04-2.26.07,0-.74.01-1.48.02-2.21.74-.13,1.49-.34,2.24-.03.21.72.2,1.45,0,2.18Z"/>
    <path class="cls-12" d="M26.83,111.92c-1.36,0-2.72.01-4.08,0-.31,0-.42.08-.41.4.03.5,0,1,.02,1.5.01.28-.09.35-.36.34-.63-.02-1.26,0-1.89,0-.05-.04-.08-.09-.1-.15-.09-.43-.03-.87-.05-1.31-.02-.58-.05-.62-.65-.63-1.68,0-3.36,0-5.05,0-.24,0-.49.02-.72-.04-.06-.02-.11-.05-.16-.09-.11-.17-.12-.34,0-.51,0-.45.04-.91,0-1.36-.03-.37.14-.41.45-.4,1.75.01,3.5,0,5.24,0,2.57,0,5.15,0,7.72.01h0c.06.59.16,1.18.16,1.78,0,.16-.01.32-.14.44Z"/>
    <path class="cls-3" d="M2.25,127.55c-.74,0-1.49,0-2.23,0,0-1.38,0-2.77-.02-4.15,0-.26.07-.33.32-.32.64.02,1.29,0,1.93.01,0,0-.01-.01-.01-.01.24.31.14.68.15,1.02.01.27.01.54,0,.81-.02.65.01,1.3,0,1.96,0,.21.02.42-.08.61-.02.02-.04.05-.06.07Z"/>
    <path class="cls-28" d="M4.5,132.01c0-.61-.03-1.22-.02-1.83,0-.27-.03-.41-.36-.39-.59.03-1.19.01-1.78.02-.02-.02-.05-.03-.08-.02,0-.74,0-1.49-.01-2.23,0,0-.01,0-.01,0,.2-.17.44-.16.68-.16.49,0,.98-.02,1.47,0,2.25-.02,4.5-.02,6.75,0,.74.03,1.48-.1,2.21.08.02.02.05.04.07.06,0,.6-.01,1.19.02,1.79.02.37-.1.47-.46.47-1.9-.01-3.81,0-5.71-.01-.43,0-.57.11-.54.54.04.56,0,1.13,0,1.69-.74,0-1.48-.02-2.22-.02Z"/>
    <path class="cls-8" d="M29.05,114.15c.74,0,1.49.01,2.23.02,0,.74.01,1.49.02,2.23-.75,0-1.5-.01-2.25-.02h.01c0-.74,0-1.48-.01-2.23Z"/>
    <path class="cls-20" d="M20.1,114.05s0,.07.01.1c0,0,.01,0,.01,0-.75.27-1.5.22-2.25.03-1.2-.09-2.39-.02-3.59-.04-.88-.01-.88,0-.89.87,0,.32,0,.64,0,.96,0,.28-.14.36-.4.36-1.18,0-2.36.04-3.54.04-.46,0-.6.18-.54.62.05.38,0,.78.02,1.16,0,.26-.13.42-.36.43-.59.02-1.19.09-1.78-.05.1-.31.07-.64.07-.96,0-.19,0-.39.06-.57.07-.18.18-.32.39-.3.23.02.28.2.28.39,0,.29-.02.58.08.87.09-.26.04-.54.08-.81.02-.16.06-.34.27-.33.23.02.22.2.21.37-.02.27-.08.55.05.81.03.07.09.15.18.14.1,0,.12-.1.13-.18.03-.24.04-.49,0-.72-.05-.33,0-.64.14-.94.09-.5.03-1,.05-1.5,0-.22-.02-.46.15-.64h-.01c.2-.17.45-.14.69-.14,1,0,1.99,0,2.99,0,.24,0,.49,0,.7-.14.18-.07.28-.17.21-.4-.08-.26-.05-.55-.02-.82.02-.21.11-.39.35-.39.24,0,.32.18.36.38.01.06,0-.02,0,.05q.11.76.89.76c.4,0,.81,0,1.21,0,.23,0,.46.02.65.14.19.12.37.2.59.08.22-.12.34.12.52.2.16-.36.16-.74.25-1.09.05-.17.09-.38.31-.38.25,0,.23.23.26.4.08.41.18.83-.04,1.2.38-.05.82-.16,1.24.08Z"/>
    <path class="cls-13" d="M17.88,114.17c.75,0,1.5-.02,2.25-.03,0,.75,0,1.49,0,2.24.11.13.13.29.13.45,0,1.19.01,2.38,0,3.58,0,.13-.02.26-.08.37-.02.02-.04.05-.07.07-.6,0-1.19-.02-1.79,0-.36.02-.46-.09-.46-.45.02-2.08,0-4.16,0-6.24Z"/>
    <path class="cls-26" d="M15.67,127.47c-.37.21-.77.07-1.16.09-.36.02-.73,0-1.09,0,0,0,0,0,0,0-.17-.19-.15-.42-.15-.64,0-.53-.01-1.06,0-1.59-.03-.56,0-1.13,0-1.69,0-.2.01-.39.15-.55,0,0,0,0,0,0,.62,0,1.23.02,1.84,0,.33-.01.4.1.4.41-.01,1.33,0,2.65,0,3.98Z"/>
    <path class="cls-15" d="M22.35,120.85c0,.75,0,1.49,0,2.24-.63,0-1.26-.01-1.89,0-.27,0-.36-.07-.36-.35.02-.63,0-1.26,0-1.89,0,0,0,0,0,0,.75-.25,1.49-.25,2.24,0h0Z"/>
    <path class="cls-30" d="M20.12,127.55c0,.75,0,1.5,0,2.25-.61,0-1.22,0-1.84.01-.31.01-.43-.08-.42-.4.03-.61.01-1.22.02-1.84.74,0,1.49-.01,2.23-.02Z"/>
    <path class="cls-7" d="M8.85,116.4c-.26.47-.03.97-.1,1.45-.03.2.08.48-.22.51-.29.02-.42-.23-.45-.48-.02-.22,0-.45.02-.67.01-.12.12-.28-.08-.3-.19-.01-.14.18-.15.3,0,.27,0,.55,0,.83,0,.14-.05.27-.21.27-.2,0-.17-.16-.17-.28.01-.3-.1-.6-.01-.91.04-.13.04-.31-.18-.33-.19-.01-.26.14-.28.28-.03.32-.02.65-.02.97,0,.2.02.4-.21.5-.02,0-.04,0-.07.02,0-.72,0-1.44-.01-2.16,0,0-.01,0-.01,0,.72-.25,1.43-.27,2.14.01Z"/>
    <path class="cls-3" d="M29.05,116.38c0,1.38,0,2.75.02,4.13,0,.27-.07.37-.35.35-.53-.02-1.07-.02-1.6,0-.23,0-.3-.06-.3-.3.01-1.3.01-2.59,0-3.89,0-.23.07-.31.3-.3.65.02,1.29.01,1.94.01,0,0-.01-.01-.01-.01Z"/>
    <path class="cls-6" d="M22.36,120.85c-.75,0-1.49,0-2.24,0,0-1.49.01-2.98.02-4.47.58,0,1.17.03,1.75,0,.4-.02.49.14.48.5-.02,1.33,0,2.65,0,3.98Z"/>
    <path class="cls-12" d="M29.04,111.93c0,.74.01,1.49.02,2.23-.63,0-1.26-.02-1.89,0-.28,0-.36-.08-.35-.35.02-.63,0-1.26,0-1.89.74,0,1.49.01,2.23.02Z"/>
    <path class="cls-25" d="M13.44,113.86c.03.31-.18.3-.4.3-1.37,0-2.73,0-4.1,0,0-.74.01-1.48.02-2.22,1.39-.01,2.78-.02,4.16-.03.1,0,.2.01.29.02,0,0-.01-.01-.01-.01.1.11.16.25.13.4-.1.51.08,1.05-.1,1.55Z"/>
    <path class="cls-37" d="M8.85,116.4c-.71,0-1.43,0-2.14-.01,0-.74.01-1.48.02-2.23l2.23-.02c0,.61,0,1.21,0,1.82,0,.15.08.32-.1.44Z"/>
    <path class="cls-19" d="M13.42,123.08l-.02,2.25c-.1.18-.28.14-.43.14-.34,0-.68,0-1.02,0-.56,0-.61.06-.62.61,0,.31,0,.61,0,.92,0,.19.01.39-.14.55h-6.8c-.14-.49-.01-.99-.04-1.48-.03-.53-.07-.58-.59-.59-.31,0-.61-.01-.92,0-.36.01-.59-.11-.57-.51,0-.62-.02-1.25-.02-1.87,3.73,0,7.45,0,11.18,0Z"/>
    <path class="cls-21" d="M13.44,113.86c0-.65-.02-1.3-.02-1.95,2.09,0,4.17.01,6.26,0,.35,0,.48.07.46.45-.04.56-.02,1.13-.03,1.7-.47,0-.94,0-1.42,0,.2-.27.23-1.3.05-1.54-.02-.03-.08-.06-.11-.05-.09.02-.12.1-.14.18-.07.39-.1.8-.24,1.17-.03.08.2.21-.05.24-.14.01-.31.04-.35-.16-.03-.16-.11-.28-.23-.12-.23.29-.41.17-.6-.02-.17-.16-.36-.19-.58-.19-.63,0-1.26-.01-1.89,0-.34.01-.48-.1-.44-.44.02-.18,0-.36,0-.53,0-.14-.06-.26-.22-.27-.19-.01-.26.12-.26.28.02.42-.13.88.25,1.21-.16.16-.3,0-.43.04Z"/>
    <path class="cls-16" d="M2.26,124.95c.07.29.22.41.54.38.4-.04.81,0,1.21-.01.32-.01.49.1.47.44-.04.59.1,1.19-.1,1.78-.71,0-1.43.02-2.14.02,0-.87.02-1.74.02-2.61Z"/>
    <path class="cls-14" d="M11.19,127.54c0-.58.01-1.16,0-1.74-.01-.36.13-.49.49-.48.58.02,1.16.01,1.73.02,0,.74.01,1.48.02,2.22-.74,0-1.49-.01-2.23-.02Z"/>
  </g>
  <g>
    <polyline class="cls-39" points="66.75 102.62 103.07 66.4 103.07 102.61"/>
    <path class="cls-34" d="M111.17,102.55c.92,2.04,1.23,4.14.7,6.35-.99,4.17-4.83,7.05-9.25,6.91-4.08-.13-7.74-3.35-8.49-7.4-.38-2.05-.04-3.96.82-5.82.1-.22.28-.4.25-.67.11-.06.23-.12.22-.28.95-1.13,2.01-2.14,3.27-2.93.12-.07.23-.14.35-.21,2.81-1.18,5.59-1.12,8.35.18.12.07.24.14.36.21,1.33.84,2.29,2.06,3.24,3.28.06.13.11.25.17.38Z"/>
    <path class="cls-34" d="M75.65,104.91c.39,2.48,0,4.78-1.43,6.9-2.05,3.05-5.71,4.56-9.4,3.81-3.5-.71-6.44-3.69-7-7.24-.62-3.93.73-7.04,4.03-9.29.17-.12.34-.25.51-.37.12-.07.23-.14.35-.22,2.67-1.13,5.34-1.12,8.02,0,.12.06.24.13.36.19,1.41.84,2.51,2,3.45,3.32.07.12.14.24.21.36.22.73.7,1.36.77,2.14.19.08.06.27.14.39Z"/>
    <polyline class="cls-39" points="103.07 25.87 66.75 67.73 139.41 106.74 139.42 66.4 103.07 25.87 103.07 66.4"/>
    <circle class="cls-36" cx="66.75" cy="67.73" r="9.26"/>
    <circle class="cls-36" cx="103.07" cy="66.4" r="9.26"/>
    <circle class="cls-36" cx="139.42" cy="66.4" r="9.26"/>
    <circle class="cls-36" cx="103.07" cy="25.87" r="9.26"/>
    <path class="cls-34" d="M144.54,100.1c.52.5,1.06.98,1.55,1.51,2.56,2.76,3.1,6.96,1.39,10.2-2.12,4.02-6.06,5.38-9.24,4.89-4.17-.64-7.09-3.52-7.79-7.41-.22-1.19-.08-2.34,0-3.52.02-.13.04-.26.07-.38.46-.94.75-1.96,1.34-2.83.07-.11.14-.22.21-.32.63-.62,1.25-1.24,1.88-1.85.12-.09.24-.17.36-.26.13-.06.28-.12.4-.19,1.94-1.14,4-1.54,6.23-1.17,1.17.19,2.2.76,3.3,1.12.03.15.15.19.28.21Z"/>
    <g>
      <line class="cls-41" x1="140.47" y1="133.04" x2="140.47" y2="124.16"/>
      <polygon class="cls-24" points="136.96 126.98 140.47 121.86 143.92 126.98 136.96 126.98"/>
    </g>
    <g>
      <line class="cls-41" x1="103.53" y1="132.89" x2="103.53" y2="124.01"/>
      <polygon class="cls-24" points="100.03 126.82 103.54 121.71 106.99 126.82 100.03 126.82"/>
    </g>
    <g>
      <line class="cls-41" x1="66.77" y1="132.04" x2="66.77" y2="123.16"/>
      <polygon class="cls-24" points="63.27 125.98 66.77 120.86 70.22 125.98 63.27 125.98"/>
    </g>
    <g>
      <line class="cls-41" x1="103.08" y1="11.18" x2="103.08" y2="2.3"/>
      <polygon class="cls-24" points="99.58 5.12 103.09 0 106.54 5.12 99.58 5.12"/>
    </g>
  </g>
  <g>
    <polyline class="cls-39" points="64.48 288.54 101.68 212.21 101.68 288.51 65.35 252.39 101.68 212.21 138.03 251.11 138.04 289.84"/>
    <path class="cls-9" d="M109.78,285.82c.92,1.96,1.23,3.98.7,6.1-.99,4-4.83,6.77-9.25,6.63-4.08-.12-7.74-3.22-8.49-7.11-.38-1.96-.04-3.8.82-5.58.1-.21.28-.39.25-.64.11-.06.23-.12.22-.27.95-1.09,2.01-2.05,3.27-2.81.12-.07.23-.14.35-.2,2.81-1.13,5.59-1.08,8.35.17.12.07.24.14.36.2,1.33.81,2.29,1.98,3.24,3.15.06.12.11.24.17.36Z"/>
    <path class="cls-9" d="M74.26,288.08c.39,2.38,0,4.59-1.43,6.63-2.05,2.93-5.71,4.37-9.4,3.66-3.5-.68-6.44-3.54-7-6.95-.62-3.77.73-6.76,4.03-8.92.17-.11.34-.24.51-.35.12-.07.23-.14.35-.21,2.67-1.08,5.34-1.08,8.02,0,.12.06.24.12.36.19,1.41.81,2.51,1.92,3.45,3.19.07.11.14.23.21.34.22.7.7,1.31.77,2.06.19.07.06.26.14.37Z"/>
    <ellipse class="cls-35" cx="65.35" cy="252.39" rx="9.26" ry="8.89"/>
    <ellipse class="cls-35" cx="138.03" cy="251.11" rx="9.26" ry="8.89"/>
    <ellipse class="cls-35" cx="101.68" cy="212.21" rx="9.26" ry="8.89"/>
    <path class="cls-9" d="M143.14,282.53c.52.48,1.06.94,1.55,1.45,2.56,2.65,3.1,6.68,1.39,9.79-2.12,3.86-6.06,5.17-9.24,4.7-4.17-.62-7.09-3.38-7.79-7.11-.22-1.14-.08-2.25,0-3.38.02-.12.04-.24.07-.37.46-.9.75-1.88,1.34-2.71.07-.1.14-.21.21-.31.63-.59,1.25-1.19,1.88-1.78.12-.08.24-.17.36-.25.13-.06.28-.11.4-.18,1.94-1.1,4-1.48,6.23-1.12,1.17.19,2.2.73,3.3,1.07.03.14.15.18.28.2Z"/>
    <g>
      <line class="cls-41" x1="138.04" y1="310.76" x2="138.04" y2="302.23"/>
      <polygon class="cls-24" points="134.54 304.93 138.04 300.02 141.49 304.93 134.54 304.93"/>
    </g>
    <g>
      <line class="cls-41" x1="102.28" y1="311.86" x2="102.28" y2="303.34"/>
      <polygon class="cls-24" points="98.78 306.04 102.29 301.13 105.74 306.04 98.78 306.04"/>
    </g>
    <g>
      <line class="cls-41" x1="65.38" y1="312.97" x2="65.38" y2="304.44"/>
      <polygon class="cls-24" points="61.87 307.14 65.38 302.23 68.83 307.14 61.87 307.14"/>
    </g>
    <g>
      <line class="cls-41" x1="101.3" y1="199.06" x2="101.3" y2="190.54"/>
      <polygon class="cls-24" points="97.8 193.24 101.31 188.33 104.76 193.24 97.8 193.24"/>
    </g>
  </g>
  <g>
    <line class="cls-42" x1="93.81" y1="167.02" x2="109.54" y2="150.5"/>
    <line class="cls-42" x1="109.54" y1="166.92" x2="93.81" y2="150.39"/>
  </g>
  <g>
    <path class="cls-15" d="M280.14,159.67c0,.54.06,1.09.01,1.63-.05.53.15.64.63.61.53-.04,1.06,0,1.59,0,.05.6.2,1.2.17,1.81-.02.37-.19.58-.57.57-.54-.02-1.1.12-1.62-.13-.34-.01-.18.25-.18.38-.02,1.35-.01,2.7-.02,4.06-.34.28-.75.14-1.12.15-.97.02-.97,0-.97.95,0,.15,0,.29,0,.44-.02.68.12.8-.83.83-1.32.05-2.65.07-3.98.02-.46-.02-.92,0-1.38-.02-1.24-.02-2.48.03-3.71.04-.46,0-.91-.24-1.38-.06,0,.68,0,1.36,0,2.04.01.07-.01.12-.07.16-.2.1-.41.07-.62.07-3.21,0-6.41.02-9.62.02-.79,0-.96.18-1.01-1.02-.01-.23,0-.45,0-.68-.01-.48-.08-.56-.58-.55-.69.01-1.39.03-2.08.01-.56-.02-1.11-.1-1.67-.17h0c-.15-.73-.31-1.48-.03-2.23.16-.14.36-.14.55-.14,1.12,0,2.23-.01,3.35,0,.62,0,.72.13.74.75,0,.32,0,.65,0,.97,0,.34.14.52.49.51.1,0,.19,0,.29,0,3.09,0,6.17,0,9.26,0,.79,0,.82-.03.82-.81,0-1.23.12-1.11-1.13-1.11-1.08,0-1.11-.03-1.1-1.12,0-.41-.08-.84.1-1.24.33-.29.74-.16,1.11-.17,1.12-.01,1.02.01,1.02-1.03,0-.91,0-.9-.94-.92-.39,0-.81.11-1.17-.15-.23-.66-.12-1.34-.08-2.01.01-.26.23-.33.45-.35.32-.03.65-.01.97-.02.76,0,.75-.01.77-.75.01-.45-.11-.91.12-1.33.28-.22.61-.15.92-.15.43,0,.86-.05,1.29.04.06.02.11.05.15.09-.11.41-.47.32-.75.35-.47.05-.59.18-.56.65.03.42.14.51.7.51,2.29,0,4.59,0,6.88,0,1.26,0,2.52,0,3.78,0,.69,0,.75-.07.74-.74,0-.24-.03-.48-.04-.72.09-.13.19-.11.3-.03Z"/>
    <path class="cls-35" d="M266.74,159.68c0,.63-.01,1.26.01,1.88,0,.28-.09.36-.36.35-.48-.02-.97.02-1.45-.01-.38-.03-.46.12-.44.46.03.59,0,1.19,0,1.79-.02.02-.05.04-.07.06-.72.18-1.45.05-2.18.08-.54.02-1.08.01-1.62,0-.24,0-.48,0-.65-.23-.12-.22-.1-.47-.1-.71,0-.98,0-1.97,0-2.95,0-.53-.05-.55-.59-.58-.51-.03-1.03.13-1.52-.14-.24-.42-.12-.89-.13-1.33-.02-.73-.02-.75-.77-.75-2.37,0-4.75,0-7.12,0-.21,0-.42,0-.63-.03-.17-.03-.34-.1-.36-.28-.07-.7-.19-1.41.09-2.09h0c.21-.16.45-.13.69-.14.5,0,1,.02,1.5-.03.06,0,.12,0,.18,0,.5.06,1,.02,1.5.03.32,0,.48-.15.47-.47,0-.34,0-.68-.01-1.02-.03-.51.13-.71.66-.73.73-.03,1.45-.01,2.18,0,.39,0,.77-.05,1.16-.07.33-.02.44-.17.45-.49.01-.37.02-.74.05-1.11.04-.43.21-.59.62-.57,1.16.03,2.32,0,3.49.02.19,0,.39-.01.54.14.14.24.1.5.1.76,0,1.66,0,3.33,0,4.99,0,.79,0,.78.82.8.41,0,.84-.09,1.24.11.28.34.16.74.17,1.11.02,1.11-.07,1.01,1.02,1.02.33,0,.68-.06,1,.09.02.02.04.04.06.06Z"/>
    <path class="cls-19" d="M269.08,159.69l-.1-.03c-.2-.23-.13-.52-.14-.79-.01-.24,0-.48,0-.72-.01-.51-.05-.54-.55-.56-.5-.02-1,.07-1.49-.07-.05-.03-.1-.07-.12-.12-.12-.34-.07-.7-.07-1.05,0-.89,0-1.77,0-2.66,0-.5-.05-.52-.56-.55-.51-.03-1.03.11-1.53-.11-.25-.73-.15-1.46-.07-2.2.03-.06.07-.1.12-.14.28-.12.57-.08.86-.08,1.29-.02,1.17.15,1.18-1.16,0-.19,0-.39.02-.58.02-.28.16-.47.45-.47,1.35-.02,2.71-.08,4.06.04.06.02.1.06.14.11.19.5.07,1.02.09,1.52.03.51.05.53.56.55.49.02.99-.07,1.48.07.06.03.1.07.13.13.08.73.2,1.46-.07,2.18-.16.14-.35.15-.55.15-.34,0-.68.01-1.02,0-.36-.01-.53.12-.52.51.01,1.07,0,2.14,0,3.2,0,.33.14.46.46.46,1.73-.02,1.44.2,1.47-1.36.01-.78,0-1.55,0-2.33,0-.23-.01-.46.16-.64.74-.22,1.49-.25,2.23.02h-.01c.16.16.16.37.16.58,0,1.84,0,3.68,0,5.52,0,.63-.12.74-.74.75-1.82.01-3.65,0-5.47,0-.19,0-.39,0-.55-.14Z"/>
    <path class="cls-2" d="M260.06,164.05c.56.19,1.13.04,1.7.09.17.01.35.01.52.02.2.23.13.52.15.78,0,.24,0,.48,0,.72.01.52.05.55.59.57.48.02.96-.08,1.43.08.02.02.04.04.06.06,0,.63,0,1.26,0,1.89,0,.28.09.37.37.36.47-.02.94.03,1.41-.01.41-.04.5.13.47.49-.03.37-.04.75,0,1.11.05.48-.1.64-.61.63-2.07-.03-4.14-.01-6.21-.01-1.28,0-2.56-.01-3.83,0-.4,0-.54-.12-.52-.53.03-.45,0-.91.01-1.36,0-.28-.1-.37-.37-.36-1.37.01-2.75.01-4.12.02,0,0,0,0,0,0-.28-.67-.18-1.36-.08-2.04.05-.33.39-.35.67-.35.81-.02,1.61,0,2.42,0,.98,0,1.97,0,2.95,0,.53,0,.56-.06.59-.59.03-.49-.1-1,.12-1.48.14-.14.32-.16.49-.16.6.01,1.2-.07,1.79.05Z"/>
    <path class="cls-38" d="M269.08,159.69c2.06,0,4.11-.02,6.17,0,.37,0,.45-.09.45-.45-.02-2.09-.01-4.18-.02-6.27h2.23c0,2.08,0,4.15.02,6.22,0,.15-.11.35.09.47.62.01,1.23.02,1.85.03.17.21.26,1.24.12,1.44-.11.17-.28.19-.47.19-3.78,0-7.57,0-11.35,0-.49,0-.54-.11-.56-.79,0-.42.09-.69.59-.67.3.01.62.08.87-.17Z"/>
    <path class="cls-31" d="M273.39,164.11c-2.05,0-4.11,0-6.16,0-.36,0-.49-.1-.47-.46.02-.37,0-.74,0-1.12,0-.62,0-.63.62-.63,2.83,0,5.66,0,8.49,0,1.24,0,2.49.02,3.73,0,.39,0,.49.15.53.49.15,1.72.16,1.71-1.54,1.71-1.73,0-3.46,0-5.19,0,0,0,0,0,0,0Z"/>
    <path class="cls-31" d="M272.35,166.4c1.67,0,3.33.02,5-.01.47,0,.6.16.56.59-.03.35-.02.71,0,1.07.02.42-.13.56-.56.56-3.01-.02-6.02,0-9.02,0-.4,0-.81,0-1.21,0-.25,0-.35-.1-.35-.35,0-.44.02-.87,0-1.31-.03-.42.11-.56.55-.56,1.68.02,3.36,0,5.05,0,0,0,0,0,0,.01Z"/>
    <path class="cls-38" d="M273.08,164.53c.89,0,1.78-.01,2.67,0,.47,0,.91,0,1.4.22.39.18.97.23,1.42-.13.23-.18,1.13-.12,1.36.05.14.1.13.25.13.39,0,.95,0,1.91,0,2.86,0,.3-.1.42-.39.39-.03,0-.06,0-.1,0-1,.01-.94.01-.92-.99,0-.47,0-1-.32-1.45-.44-.59-.67-.64-1.41-.24-.2.11-.42.15-.65.15-2.14,0-4.27,0-6.41,0-.38,0-.76-.03-.78-.57-.02-.56.09-.69.65-.69,1.12,0,2.23,0,3.35,0Z"/>
    <path class="cls-38" d="M272.28,169.09c1.21,0,2.43.01,3.64,0,.45,0,.9.07,1.35.1.47.03.58.29.56.72-.02.41-.2.62-.61.65-1.24.08-2.48-.06-3.71.01-.99.06-1.98-.02-2.98.02-.84.03-1.71,0-2.56-.04-.3-.01-.44-.18-.44-.47,0-.15,0-.29,0-.44-.02-.41.15-.56.58-.56,1.39.02,2.78,0,4.18,0Z"/>
    <path class="cls-1" d="M266.75,157.44c.58,0,1.16.02,1.74,0,.37-.02.52.08.5.48-.03.58,0,1.16,0,1.74-.75,0-1.5.01-2.24.02,0,0,.01,0,.01,0-.25-.75-.25-1.49,0-2.24Z"/>
    <path class="cls-31" d="M264.51,164.14c.6,0,1.19.02,1.79,0,.33,0,.46.12.44.46-.02.42-.03.84,0,1.26.02.38-.09.52-.49.5-.58-.03-1.16,0-1.74,0,0,0,0,0,0,0-.25-.75-.24-1.5,0-2.25h0Z"/>
    <path class="cls-38" d="M282.21,163.16c.16.32,0,.49-.26.62-.17.09-.32.07-.44-.05-.15-.14.03-.22.1-.31.15-.21.15-.39-.08-.53-.16-.1-.24-.2-.16-.39.07-.16.19-.26.36-.28.18-.02.25.12.3.26.09.22.38.4.17.69Z"/>
    <path class="cls-28" d="M248.87,155.19c0,.6.03,1.2,0,1.79-.02.36.09.46.46.46,2.65-.02,5.3,0,7.94-.02.44,0,.58.11.55.55-.04.56-.01,1.13-.02,1.69-.02.02-.05.04-.07.06-.23.12-.47.09-.71.09-3.2,0-6.4,0-9.59,0-.24,0-.49.03-.71-.08-.02-.02-.05-.04-.07-.06,0-1.49,0-2.98,0-4.47.74,0,1.48-.01,2.22-.02Z"/>
    <path class="cls-26" d="M251.12,155.13c-.75.16-1.51.04-2.26.07,0-.74.01-1.48.02-2.21.74-.13,1.49-.34,2.24-.03.21.72.2,1.45,0,2.18Z"/>
    <path class="cls-12" d="M271.22,148.5c-1.36,0-2.72.01-4.08,0-.31,0-.42.08-.41.4.03.5,0,1,.02,1.5.01.28-.09.35-.36.34-.63-.02-1.26,0-1.89,0-.05-.04-.08-.09-.1-.15-.09-.43-.03-.87-.05-1.31-.02-.58-.05-.62-.65-.63-1.68,0-3.36,0-5.05,0-.24,0-.49.02-.72-.04-.06-.02-.11-.05-.16-.09-.11-.17-.12-.34,0-.51,0-.45.04-.91,0-1.36-.03-.37.14-.41.45-.4,1.75.01,3.5,0,5.24,0,2.57,0,5.15,0,7.72.01h0c.06.59.16,1.18.16,1.78,0,.16-.01.32-.14.44Z"/>
    <path class="cls-3" d="M246.64,164.14c-.74,0-1.49,0-2.23,0,0-1.38,0-2.77-.02-4.15,0-.26.07-.33.32-.32.64.02,1.29,0,1.93.01,0,0-.01-.01-.01-.01.24.31.14.68.15,1.02.01.27.01.54,0,.81-.02.65.01,1.3,0,1.96,0,.21.02.42-.08.61-.02.02-.04.05-.06.07Z"/>
    <path class="cls-28" d="M248.89,168.59c0-.61-.03-1.22-.02-1.83,0-.27-.03-.41-.36-.39-.59.03-1.19.01-1.78.02-.02-.02-.05-.03-.08-.02,0-.74,0-1.49-.01-2.23,0,0-.01,0-.01,0,.2-.17.44-.16.68-.16.49,0,.98-.02,1.47,0,2.25-.02,4.5-.02,6.75,0,.74.03,1.48-.1,2.21.08.02.02.05.04.07.06,0,.6-.01,1.19.02,1.79.02.37-.1.47-.46.47-1.9-.01-3.81,0-5.71-.01-.43,0-.57.11-.54.54.04.56,0,1.13,0,1.69-.74,0-1.48-.02-2.22-.02Z"/>
    <path class="cls-8" d="M273.44,150.73c.74,0,1.49.01,2.23.02,0,.74.01,1.49.02,2.23-.75,0-1.5-.01-2.25-.02h.01c0-.74,0-1.48-.01-2.23Z"/>
    <path class="cls-18" d="M264.49,150.64s0,.07.01.1c0,0,.01,0,.01,0-.75.27-1.5.22-2.25.03-1.2-.09-2.39-.02-3.59-.04-.88-.01-.88,0-.89.87,0,.32,0,.64,0,.96,0,.28-.14.36-.4.36-1.18,0-2.36.04-3.54.04-.46,0-.6.18-.54.62.05.38,0,.78.02,1.16,0,.26-.13.42-.36.43-.59.02-1.19.09-1.78-.05.1-.31.07-.64.07-.96,0-.19,0-.39.06-.57.07-.18.18-.32.39-.3.23.02.28.2.28.39,0,.29-.02.58.08.87.09-.26.04-.54.08-.81.02-.16.06-.34.27-.33.23.02.22.2.21.37-.02.27-.08.55.05.81.03.07.09.15.18.14.1,0,.12-.1.13-.18.03-.24.04-.49,0-.72-.05-.33,0-.64.14-.94.09-.5.03-1,.05-1.5,0-.22-.02-.46.15-.64h-.01c.2-.17.45-.14.69-.14,1,0,1.99,0,2.99,0,.24,0,.49,0,.7-.14.18-.07.28-.17.21-.4-.08-.26-.05-.55-.02-.82.02-.21.11-.39.35-.39.24,0,.32.18.36.38.01.06,0-.02,0,.05q.11.76.89.76c.4,0,.81,0,1.21,0,.23,0,.46.02.65.14.19.12.37.2.59.08.22-.12.34.12.52.2.16-.36.16-.74.25-1.09.05-.17.09-.38.31-.38.25,0,.23.23.26.4.08.41.18.83-.04,1.2.38-.05.82-.16,1.24.08Z"/>
    <path class="cls-13" d="M262.27,150.76c.75,0,1.5-.02,2.25-.03,0,.75,0,1.49,0,2.24.11.13.13.29.13.45,0,1.19.01,2.38,0,3.58,0,.13-.02.26-.08.37-.02.02-.04.05-.07.07-.6,0-1.19-.02-1.79,0-.36.02-.46-.09-.46-.45.02-2.08,0-4.16,0-6.24Z"/>
    <path class="cls-26" d="M260.06,164.05c-.37.21-.77.07-1.16.09-.36.02-.73,0-1.09,0,0,0,0,0,0,0-.17-.19-.15-.42-.15-.64,0-.53-.01-1.06,0-1.59-.03-.56,0-1.13,0-1.69,0-.2.01-.39.15-.55,0,0,0,0,0,0,.62,0,1.23.02,1.84,0,.33-.01.4.1.4.41-.01,1.33,0,2.65,0,3.98Z"/>
    <path class="cls-15" d="M266.75,157.44c0,.75,0,1.49,0,2.24-.63,0-1.26-.01-1.89,0-.27,0-.36-.07-.36-.35.02-.63,0-1.26,0-1.89,0,0,0,0,0,0,.75-.25,1.49-.25,2.24,0h0Z"/>
    <path class="cls-30" d="M264.51,164.13c0,.75,0,1.5,0,2.25-.61,0-1.22,0-1.84.01-.31.01-.43-.08-.42-.4.03-.61.01-1.22.02-1.84.74,0,1.49-.01,2.23-.02Z"/>
    <path class="cls-32" d="M253.24,152.98c-.26.47-.03.97-.1,1.45-.03.2.08.48-.22.51-.29.02-.42-.23-.45-.48-.02-.22,0-.45.02-.67.01-.12.12-.28-.08-.3-.19-.01-.14.18-.15.3,0,.27,0,.55,0,.83,0,.14-.05.27-.21.27-.2,0-.17-.16-.17-.28.01-.3-.1-.6-.01-.91.04-.13.04-.31-.18-.33-.19-.01-.26.14-.28.28-.03.32-.02.65-.02.97,0,.2.02.4-.21.5-.02,0-.04,0-.07.02,0-.72,0-1.44-.01-2.16,0,0-.01,0-.01,0,.72-.25,1.43-.27,2.14.01Z"/>
    <path class="cls-3" d="M273.44,152.96c0,1.38,0,2.75.02,4.13,0,.27-.07.37-.35.35-.53-.02-1.07-.02-1.6,0-.23,0-.3-.06-.3-.3.01-1.3.01-2.59,0-3.89,0-.23.07-.31.3-.3.65.02,1.29.01,1.94.01,0,0-.01-.01-.01-.01Z"/>
    <path class="cls-1" d="M266.75,157.44c-.75,0-1.49,0-2.24,0,0-1.49.01-2.98.02-4.47.58,0,1.17.03,1.75,0,.4-.02.49.14.48.5-.02,1.33,0,2.65,0,3.98Z"/>
    <path class="cls-12" d="M273.44,148.51c0,.74.01,1.49.02,2.23-.63,0-1.26-.02-1.89,0-.28,0-.36-.08-.35-.35.02-.63,0-1.26,0-1.89.74,0,1.49.01,2.23.02Z"/>
    <path class="cls-25" d="M257.83,150.44c.03.31-.18.3-.4.3-1.37,0-2.73,0-4.1,0,0-.74.01-1.48.02-2.22,1.39-.01,2.78-.02,4.16-.03.1,0,.2.01.29.02,0,0-.01-.01-.01-.01.1.11.16.25.13.4-.1.51.08,1.05-.1,1.55Z"/>
    <path class="cls-37" d="M253.24,152.98c-.71,0-1.43,0-2.14-.01,0-.74.01-1.48.02-2.23l2.23-.02c0,.61,0,1.21,0,1.82,0,.15.08.32-.1.44Z"/>
    <path class="cls-19" d="M257.81,159.67l-.02,2.25c-.1.18-.28.14-.43.14-.34,0-.68,0-1.02,0-.56,0-.61.06-.62.61,0,.31,0,.61,0,.92,0,.19.01.39-.14.55h-6.8c-.14-.49-.01-.99-.04-1.48-.03-.53-.07-.58-.59-.59-.31,0-.61-.01-.92,0-.36.01-.59-.11-.57-.51,0-.62-.02-1.25-.02-1.87,3.73,0,7.45,0,11.18,0Z"/>
    <path class="cls-27" d="M257.83,150.44c0-.65-.02-1.3-.02-1.95,2.09,0,4.17.01,6.26,0,.35,0,.48.07.46.45-.04.56-.02,1.13-.03,1.7-.47,0-.94,0-1.42,0,.2-.27.23-1.3.05-1.54-.02-.03-.08-.06-.11-.05-.09.02-.12.1-.14.18-.07.39-.1.8-.24,1.17-.03.08.2.21-.05.24-.14.01-.31.04-.35-.16-.03-.16-.11-.28-.23-.12-.23.29-.41.17-.6-.02-.17-.16-.36-.19-.58-.19-.63,0-1.26-.01-1.89,0-.34.01-.48-.1-.44-.44.02-.18,0-.36,0-.53,0-.14-.06-.26-.22-.27-.19-.01-.26.12-.26.28.02.42-.13.88.25,1.21-.16.16-.3,0-.43.04Z"/>
    <path class="cls-10" d="M246.66,161.54c.07.29.22.41.54.38.4-.04.81,0,1.21-.01.32-.01.49.1.47.44-.04.59.1,1.19-.1,1.78-.71,0-1.43.02-2.14.02,0-.87.02-1.74.02-2.61Z"/>
    <path class="cls-17" d="M255.58,164.12c0-.58.01-1.16,0-1.74-.01-.36.13-.49.49-.48.58.02,1.16.01,1.73.02,0,.74.01,1.48.02,2.22-.74,0-1.49-.01-2.23-.02Z"/>
  </g>
  <g>
    <polyline class="cls-39" points="314.57 196.4 351.77 116.89 351.77 196.37 315.45 158.74 351.77 116.89 388.12 157.42 388.13 197.75"/>
    <path class="cls-9" d="M359.87,193.57c.92,2.04,1.23,4.14.7,6.35-.99,4.17-4.83,7.05-9.25,6.91-4.08-.13-7.74-3.35-8.49-7.4-.38-2.05-.04-3.96.82-5.82.1-.22.28-.4.25-.67.11-.06.23-.12.22-.28.95-1.13,2.01-2.14,3.27-2.93.12-.07.23-.14.35-.21,2.81-1.18,5.59-1.12,8.35.18.12.07.24.14.36.21,1.33.84,2.29,2.06,3.24,3.28.06.13.11.25.17.38Z"/>
    <path class="cls-34" d="M324.35,195.93c.39,2.48,0,4.78-1.43,6.9-2.05,3.05-5.71,4.56-9.4,3.81-3.5-.71-6.44-3.69-7-7.24-.62-3.93.73-7.04,4.03-9.29.17-.12.34-.25.51-.37.12-.07.23-.14.35-.22,2.67-1.13,5.34-1.12,8.02,0,.12.06.24.13.36.19,1.41.84,2.51,2,3.45,3.32.07.12.14.24.21.36.22.73.7,1.36.77,2.14.19.08.06.27.14.39Z"/>
    <circle class="cls-35" cx="315.45" cy="158.74" r="9.26"/>
    <circle class="cls-36" cx="388.12" cy="157.42" r="9.26"/>
    <circle class="cls-35" cx="351.77" cy="116.89" r="9.26"/>
    <path class="cls-34" d="M393.24,190.14c.52.5,1.06.98,1.55,1.51,2.56,2.76,3.1,6.96,1.39,10.2-2.12,4.02-6.06,5.38-9.24,4.89-4.17-.64-7.09-3.52-7.79-7.41-.22-1.19-.08-2.34,0-3.52.02-.13.04-.26.07-.38.46-.94.75-1.96,1.34-2.83.07-.11.14-.22.21-.32.63-.62,1.25-1.24,1.88-1.85.12-.09.24-.17.36-.26.13-.06.28-.12.4-.19,1.94-1.14,4-1.54,6.23-1.17,1.17.19,2.2.76,3.3,1.12.03.15.15.19.28.21Z"/>
    <circle class="cls-36" cx="351.77" cy="157.9" r="9.26"/>
    <g>
      <line class="cls-41" x1="316.47" y1="223.12" x2="316.47" y2="214.24"/>
      <polygon class="cls-24" points="312.97 217.05 316.48 211.93 319.93 217.05 312.97 217.05"/>
    </g>
    <g>
      <line class="cls-41" x1="351.8" y1="222.64" x2="351.8" y2="213.76"/>
      <polygon class="cls-24" points="348.29 216.57 351.8 211.46 355.25 216.57 348.29 216.57"/>
    </g>
    <g>
      <line class="cls-41" x1="388.16" y1="221.86" x2="388.16" y2="212.98"/>
      <polygon class="cls-24" points="384.65 215.79 388.16 210.68 391.61 215.79 384.65 215.79"/>
    </g>
    <g>
      <line class="cls-41" x1="351.82" y1="103.22" x2="351.82" y2="94.34"/>
      <polygon class="cls-24" points="348.32 97.16 351.82 92.04 355.28 97.16 348.32 97.16"/>
    </g>
  </g>
  <g>
    <line class="cls-40" x1="173.42" y1="159.55" x2="200.86" y2="159.55"/>
    <polygon class="cls-24" points="191.97 148.84 207.71 159.64 191.97 170.26 191.97 148.84"/>
  </g>
</svg>